<svg width="48" height="48" viewBox="0 0 48 48" fill="none" xmlns="http://www.w3.org/2000/svg">
<path d="M22.17 17C22.3194 16.9995 22.467 17.0325 22.602 17.0965C22.737 17.1606 22.8559 17.254 22.95 17.37L27.78 23.37C27.9271 23.549 28.0075 23.7734 28.0075 24.005C28.0075 24.2367 27.9271 24.4611 27.78 24.64L22.78 30.64C22.6103 30.8442 22.3664 30.9727 22.1019 30.9971C21.8375 31.0214 21.5742 30.9398 21.37 30.77C21.1658 30.6003 21.0374 30.3564 21.013 30.092C20.9886 29.8275 21.0703 29.5642 21.24 29.36L25.71 24L21.39 18.64C21.2677 18.4932 21.1901 18.3145 21.1662 18.125C21.1423 17.9354 21.1732 17.743 21.2553 17.5705C21.3373 17.3979 21.4671 17.2525 21.6292 17.1514C21.7913 17.0503 21.979 16.9978 22.17 17Z" fill="white"/>
<g filter="url(#filter0_d_7_329)">
<circle cx="24" cy="24" r="16.5" transform="rotate(180 24 24)" stroke="url(#paint0_linear_7_329)"/>
</g>
<defs>
<filter id="filter0_d_7_329" x="0" y="0" width="48" height="48" filterUnits="userSpaceOnUse" color-interpolation-filters="sRGB">
<feFlood flood-opacity="0" result="BackgroundImageFix"/>
<feColorMatrix in="SourceAlpha" type="matrix" values="0 0 0 0 0 0 0 0 0 0 0 0 0 0 0 0 0 0 127 0" result="hardAlpha"/>
<feMorphology radius="2" operator="dilate" in="SourceAlpha" result="effect1_dropShadow_7_329"/>
<feOffset/>
<feGaussianBlur stdDeviation="2.5"/>
<feColorMatrix type="matrix" values="0 0 0 0 0.00392157 0 0 0 0 1 0 0 0 0 0.184314 0 0 0 0.5 0"/>
<feBlend mode="normal" in2="BackgroundImageFix" result="effect1_dropShadow_7_329"/>
<feBlend mode="normal" in="SourceGraphic" in2="effect1_dropShadow_7_329" result="shape"/>
</filter>
<linearGradient id="paint0_linear_7_329" x1="7" y1="24" x2="41" y2="24" gradientUnits="userSpaceOnUse">
<stop stop-color="#00B4EB"/>
<stop offset="1" stop-color="#00FF2E"/>
</linearGradient>
</defs>
</svg>
