<svg width="48" height="48" viewBox="0 0 48 48" fill="none" xmlns="http://www.w3.org/2000/svg">
<path d="M25.83 31C25.6806 31.0005 25.533 30.9675 25.398 30.9035C25.263 30.8394 25.1441 30.746 25.05 30.63L20.22 24.63C20.0729 24.451 19.9925 24.2266 19.9925 23.995C19.9925 23.7633 20.0729 23.5389 20.22 23.36L25.22 17.36C25.3897 17.1558 25.6336 17.0273 25.8981 17.0029C26.1625 16.9786 26.4258 17.0602 26.63 17.23C26.8342 17.3997 26.9626 17.6436 26.987 17.908C27.0114 18.1725 26.9297 18.4358 26.76 18.64L22.29 24L26.61 29.36C26.7323 29.5068 26.8099 29.6855 26.8338 29.875C26.8577 30.0646 26.8268 30.257 26.7447 30.4295C26.6627 30.6021 26.5329 30.7475 26.3708 30.8486C26.2087 30.9497 26.021 31.0022 25.83 31Z" fill="white"/>
<g filter="url(#filter0_d_7_328)">
<circle cx="24" cy="24" r="16.5" stroke="url(#paint0_linear_7_328)"/>
</g>
<defs>
<filter id="filter0_d_7_328" x="0" y="0" width="48" height="48" filterUnits="userSpaceOnUse" color-interpolation-filters="sRGB">
<feFlood flood-opacity="0" result="BackgroundImageFix"/>
<feColorMatrix in="SourceAlpha" type="matrix" values="0 0 0 0 0 0 0 0 0 0 0 0 0 0 0 0 0 0 127 0" result="hardAlpha"/>
<feMorphology radius="2" operator="dilate" in="SourceAlpha" result="effect1_dropShadow_7_328"/>
<feOffset/>
<feGaussianBlur stdDeviation="2.5"/>
<feColorMatrix type="matrix" values="0 0 0 0 0.00392157 0 0 0 0 1 0 0 0 0 0.184314 0 0 0 0.5 0"/>
<feBlend mode="normal" in2="BackgroundImageFix" result="effect1_dropShadow_7_328"/>
<feBlend mode="normal" in="SourceGraphic" in2="effect1_dropShadow_7_328" result="shape"/>
</filter>
<linearGradient id="paint0_linear_7_328" x1="7" y1="24" x2="41" y2="24" gradientUnits="userSpaceOnUse">
<stop stop-color="#00B4EB"/>
<stop offset="1" stop-color="#00FF2E"/>
</linearGradient>
</defs>
</svg>
